<svg width="406" height="406" viewBox="0 0 406 406" fill="none" xmlns="http://www.w3.org/2000/svg">
<circle cx="203" cy="203" r="203" fill="white"/>
<path d="M191 381.208V244.282L92.1348 343.147C119.686 364.91 153.789 378.745 191 381.208Z" fill="#FED604"/>
<path d="M216 381.139C252.993 378.484 286.874 364.588 314.244 342.848L216 244.604V381.139Z" fill="#FED604"/>
<path d="M332.71 325.959C363.254 293.852 382 250.417 382 202.604C382 108.117 308.79 30.7287 216 24.069L216 209.249L332.71 325.959Z" fill="#0058BC"/>
<path d="M191 24L191 208.926L73.6207 326.306C42.8817 294.165 24 250.59 24 202.604C24 107.778 97.7363 30.1733 191 24Z" fill="#0058BC"/>
</svg>